<?xml version="1.0" standalone="no"?>
<!DOCTYPE svg PUBLIC "-//W3C//DTD SVG 20010904//EN"
 "http://www.w3.org/TR/2001/REC-SVG-20010904/DTD/svg10.dtd">
<svg version="1.0" xmlns="http://www.w3.org/2000/svg"
 width="1920.000000pt" height="1920.000000pt" viewBox="0 0 1920.000000 1920.000000"
 preserveAspectRatio="xMidYMid meet">
<metadata>
Created by potrace 1.14, written by Peter Selinger 2001-2017
</metadata>
<g transform="translate(0.000000,1920.000000) scale(0.100000,-0.100000)"
fill="#000000" stroke="none">
<path d="M8050 13664 c-781 -71 -1459 -433 -1934 -1034 -567 -715 -735 -1682
-445 -2552 170 -512 490 -962 919 -1296 290 -225 667 -406 1025 -492 229 -55
385 -73 645 -73 262 -1 414 17 649 74 287 70 612 212 846 368 l120 81 485
-485 485 -485 293 292 292 293 -485 485 -486 486 49 69 c230 329 388 734 453
1165 18 118 22 188 22 380 0 256 -17 412 -70 635 -82 349 -275 755 -486 1025
-454 581 -1069 938 -1802 1046 -97 14 -483 26 -575 18z m505 -450 c875 -119
1592 -706 1874 -1532 77 -227 110 -411 118 -668 9 -292 -25 -532 -116 -802
-286 -859 -1039 -1458 -1950 -1553 -141 -14 -438 -7 -571 15 -343 57 -639 171
-913 353 -648 429 -1029 1138 -1029 1913 0 199 14 322 58 517 75 336 248 684
472 954 502 600 1289 907 2057 803z"/>
<path d="M8189 12265 c-55 -17 -123 -82 -138 -128 -5 -18 -12 -61 -16 -97 -13
-127 -65 -199 -183 -255 -31 -15 -142 -51 -247 -81 -208 -60 -264 -80 -370
-132 -298 -147 -453 -413 -472 -809 l-6 -133 1502 0 1501 0 0 76 c0 176 -51
392 -126 535 -91 173 -247 301 -472 386 -35 13 -136 44 -224 69 -227 63 -307
96 -366 149 -59 53 -79 98 -91 203 -9 86 -25 124 -68 163 -63 60 -145 79 -224
54z m127 -149 c57 -48 22 -146 -52 -146 -46 0 -63 9 -79 41 -22 42 -18 67 14
100 37 36 79 38 117 5z"/>
<path d="M6190 10509 c0 -17 178 -95 292 -127 443 -126 1143 -191 1933 -179
735 11 1296 76 1666 193 113 36 249 98 249 115 0 5 -909 9 -2070 9 -1461 0
-2070 -3 -2070 -11z"/>
<path d="M11292 7907 l-462 -462 958 -958 957 -957 463 463 462 462 -958 958
-957 957 -463 -463z"/>
</g>
</svg>
